<svg width="17" height="17" xmlns="http://www.w3.org/2000/svg" fill="none">

 <g>
  <title>Layer 1</title>
  <circle id="svg_1" stroke-width="2" stroke="black" r="7.5" cy="8.5" cx="8.5"/>
  <ellipse ry="2.57142" rx="2.57142" id="svg_3" cy="8.64286" cx="8.49999" stroke-width="2" stroke="black"/>
  <path fill="none" d="m8.5,8.33517c0,0.10989 0,0.10989 0,0.32967c0,0.10989 0,0.21978 0,0.32967c0,0 0,0 0.10989,0c0,0 0,0 0.10989,0c0,0 0.0762,0.05042 0.21978,0.10989c0.10153,0.04205 0.21978,0 0.21978,0c0.10989,0 0.10989,0 0.21978,0c0,0 0.10989,-0.10989 0.10989,-0.10989c0,-0.10989 0,-0.21978 0,-0.21978c0,-0.10989 0,-0.10989 0,-0.21978c0,0 0,-0.10989 -0.10989,-0.10989c0,0 0,-0.10989 0,-0.10989c-0.10989,0 -0.10989,-0.10989 -0.10989,-0.10989c-0.10989,0 -0.03219,-0.03219 -0.10989,-0.10989c-0.0777,-0.0777 -0.10989,0 -0.10989,0c-0.10989,0 -0.10989,0 -0.10989,0c-0.10989,-0.10989 -0.21978,-0.10989 -0.21978,-0.10989c0,0 -0.10989,0 -0.10989,0c-0.10989,0 -0.10989,0 -0.21978,0c-0.10989,0 -0.10989,0 -0.21978,0c0,0 -0.10989,0 -0.21978,0c0,0 -0.10989,0.10989 -0.10989,0.10989c-0.10989,0 -0.10989,0 -0.21978,0.10989c0,0 0,0 -0.10989,0.10989c0,0 0,0.10989 0,0.21978c0,0 0,0.10989 0,0.10989c0,0.10989 0,0.21978 0,0.21978c0,0.10989 0,0.21978 0,0.32967c0,0.10989 0,0.10989 0.10989,0.10989c0,0 0,0 0.10989,0c0,0 0,0 0.10989,0c0,0 0.10989,0 0.21978,0c0,0 0.10989,0 0.10989,0c0.10989,0 0.10989,0 0.10989,0c0.10989,0 0.10989,0 0.21978,0c0,0 0.10989,0 0.10989,0c0,0 0.10989,0 0.21978,-0.10989c0,0 0,0 0.10989,-0.10989c0,0 0.10989,0 0.10989,0c0,-0.10989 0.10989,-0.10989 0.10989,-0.10989c0,0 0,0 0.10989,0c0,0 0,0.10989 0,0.10989c0,0.10989 -0.10989,0.21978 -0.10989,0.21978c-0.10989,0.10989 -0.10989,0.21978 -0.21978,0.21978c-0.10989,0 -0.21978,0.10989 -0.32967,0.10989c-0.10989,0 -0.32967,0 -0.32967,0c-0.10989,0 -0.21978,0 -0.21978,0c-0.10989,0 -0.21978,-0.10989 -0.21978,-0.10989c-0.10989,-0.10989 -0.17773,-0.22814 -0.21978,-0.32967c-0.05947,-0.14358 -0.10989,-0.21978 -0.10989,-0.32967c0,-0.10989 0,-0.32967 0,-0.32967c0,-0.10989 0,-0.21978 0,-0.21978c0,-0.10989 0,-0.10989 0,-0.21978c0,0 0.10989,-0.10989 0.21978,-0.21978c0,0 0.05708,-0.22404 0.10989,-0.54945c0.05566,-0.34302 0.21978,-0.54945 0.21978,-0.76923c0,-0.10989 0,0 0,0c0,0 0,0.10989 0,0.21978c0,0.21978 0,0.32967 0,0.43956l0,0l0,0" id="svg_4" stroke-width="2" stroke="black"/>
 </g>
</svg>